<svg width="48" height="32" viewBox="0 0 48 32" fill="none" xmlns="http://www.w3.org/2000/svg">
<rect x="2" y="2" width="44" height="28" stroke="#182026" stroke-width="3"/>
<path d="M22.098 13.5469H18.9872C18.9304 13.1444 18.8144 12.7869 18.6392 12.4744C18.464 12.1572 18.2391 11.8873 17.9645 11.6648C17.6899 11.4422 17.3726 11.2718 17.0128 11.1534C16.6577 11.035 16.2718 10.9759 15.8551 10.9759C15.1023 10.9759 14.4465 11.1629 13.8878 11.5369C13.3291 11.9062 12.8958 12.446 12.5881 13.1562C12.2803 13.8617 12.1264 14.7187 12.1264 15.7273C12.1264 16.7642 12.2803 17.6354 12.5881 18.3409C12.9006 19.0464 13.3362 19.5791 13.8949 19.9389C14.4536 20.2988 15.0999 20.4787 15.8338 20.4787C16.2457 20.4787 16.6269 20.4242 16.9773 20.3153C17.3324 20.2064 17.6473 20.0478 17.9219 19.8395C18.1965 19.6264 18.4238 19.3684 18.6037 19.0653C18.7884 18.7623 18.9162 18.4167 18.9872 18.0284L22.098 18.0426C22.0175 18.7102 21.8163 19.3542 21.4943 19.9744C21.1771 20.59 20.7486 21.1416 20.2088 21.6293C19.6738 22.1122 19.0346 22.4957 18.2912 22.7798C17.5526 23.0592 16.7169 23.1989 15.7841 23.1989C14.4867 23.1989 13.3267 22.9053 12.304 22.3182C11.286 21.7311 10.4811 20.8812 9.8892 19.7685C9.30208 18.6558 9.00852 17.3087 9.00852 15.7273C9.00852 14.1411 9.30682 12.7917 9.90341 11.679C10.5 10.5663 11.3097 9.71875 12.3324 9.13636C13.3551 8.54924 14.5057 8.25568 15.7841 8.25568C16.6269 8.25568 17.4081 8.37405 18.1278 8.6108C18.8523 8.84754 19.4938 9.19318 20.0526 9.64773C20.6113 10.0975 21.0658 10.6491 21.4162 11.3026C21.7713 11.956 21.9986 12.7041 22.098 13.5469ZM26.3033 23V8.45455H29.3786V14.456H35.6214V8.45455H38.6896V23H35.6214V16.9915H29.3786V23H26.3033Z" fill="black"/>
</svg>
